#!OML:ASF H:\Dans Jumps\Project 1\Capture day 1\Session 1\subject.ASF
:FULLY-SPECIFIED
:DEGREES
613
root 0.437523 17.5763 10.8504 10.2039 -2.39112 -2.66715
lowerback 3.88529 0.602657 0.173156
upperback 5.60889 0.761751 1.45499
thorax 3.58234 0.352297 1.39694
lowerneck -15.0396 0.939244 -1.63473
upperneck 34.265 1.78105 0.310902
head 14.2217 0.590613 0.702875
rclavicle -4.42296e-015 -1.98785e-015
rhumerus -15.1847 -4.02553 -87.6845
rradius 27.0116
rwrist 28.2551
rhand -21.4698 -26.8393
rfingers 7.12502
rthumb 4.92069 -56.7622
lclavicle -4.42296e-015 -1.98785e-015
lhumerus -14.9216 -11.2245 92.1838
lradius 22.4845
lwrist 9.85784
lhand -27.6301 -7.76189
lfingers 7.12502
lthumb -1.02866 22.2154
rfemur -20.9034 -1.42981 21.9067
rtibia 26.7364
rfoot -14.881 0.60955
rtoes 11.108
lfemur -18.2274 6.80081 -17.854
ltibia 25.3855
lfoot -12.1352 9.60051
ltoes -13.0582
614
root 0.435547 17.5764 10.8478 10.2008 -2.37834 -2.67319
lowerback 3.88118 0.600739 0.175034
upperback 5.59819 0.759182 1.46165
thorax 3.57347 0.351013 1.4027
lowerneck -15.0256 0.936908 -1.63423
upperneck 34.2607 1.77781 0.308926
head 14.2167 0.589159 0.701299
rclavicle 1.93815e-015 -6.95746e-016
rhumerus -15.1896 -3.95965 -87.6999
rradius 27.0718
rwrist 28.1949
rhand -21.4595 -26.8385
rfingers 7.12502
rthumb 4.93066 -56.7611
lclavicle 1.93815e-015 -6.95746e-016
lhumerus -14.9258 -11.2818 92.2101
lradius 22.4961
lwrist 9.91146
lhand -27.6356 -7.76253
lfingers 7.12502
lthumb -1.03395 22.2147
rfemur -20.9063 -1.42652 21.9219
rtibia 26.7343
rfoot -14.8729 0.597409
rtoes 11.1198
lfemur -18.2354 6.79532 -17.8386
ltibia 25.3847
lfoot -12.1421 9.59056
ltoes -12.9836
615
root 0.433819 17.5767 10.8458 10.1974 -2.36586 -2.6755
lowerback 3.87157 0.598098 0.175382
upperback 5.58852 0.755594 1.46725
thorax 3.56881 0.349169 1.40832
lowerneck -15.0111 0.933207 -1.63996
upperneck 34.256 1.77156 0.315033
head 14.2112 0.586714 0.703594
rclavicle 5.01931e-015 8.34896e-015
rhumerus -15.2003 -3.87937 -87.7134
rradius 27.1395
rwrist 28.1215
rhand -21.4484 -26.8508
rfingers 7.12502
rthumb 4.94139 -56.7731
lclavicle 5.01931e-015 8.34896e-015
lhumerus -14.929 -11.342 92.235
lradius 22.5102
lwrist 9.97107
lhand -27.6336 -7.74338
lfingers 7.12502
lthumb -1.03208 22.2339
rfemur -20.9051 -1.43332 21.9323
rtibia 26.7285
rfoot -14.8643 0.596601
rtoes 11.1439
lfemur -18.2396 6.78886 -17.8286
ltibia 25.3826
lfoot -12.1498 9.58143
ltoes -12.9188
616
root 0.432195 17.577 10.844 10.195 -2.35337 -2.68094
lowerback 3.85891 0.594383 0.177948
upperback 5.58012 0.750507 1.47475
thorax 3.5672 0.346604 1.41472
lowerneck -14.9971 0.929883 -1.64969
upperneck 34.2465 1.76579 0.32458
head 14.2036 0.584469 0.708019
rclavicle 3.67752e-015 2.77305e-014
rhumerus -15.2129 -3.78894 -87.724
rradius 27.2127
rwrist 28.0426
rhand -21.4359 -26.8736
rfingers 7.12502
rthumb 4.95346 -56.7957
lclavicle 3.67752e-015 2.77305e-014
lhumerus -14.9295 -11.4016 92.2583
lradius 22.5245
lwrist 10.0288
lhand -27.624 -7.71166
lfingers 7.12502
lthumb -1.02276 22.2656
rfemur -20.902 -1.44299 21.946
rtibia 26.7183
rfoot -14.8531 0.599873
rtoes 11.1746
lfemur -18.2431 6.78198 -17.8154
ltibia 25.3788
lfoot -12.1618 9.57193
ltoes -12.8329
617
root 0.430738 17.5774 10.8426 10.193 -2.34262 -2.68625
lowerback 3.84368 0.590199 0.1809
upperback 5.57295 0.744755 1.48227
thorax 3.56835 0.343707 1.42097
lowerneck -14.9841 0.927079 -1.66354
upperneck 34.2322 1.76031 0.33885
head 14.1938 0.582502 0.715087
rclavicle -4.22417e-015 -9.83984e-015
rhumerus -15.2209 -3.69628 -87.7329
rradius 27.2802
rwrist 27.9666
rhand -21.4283 -26.9006
rfingers 7.12502
rthumb 4.96079 -56.8226
lclavicle -4.22417e-015 -9.83984e-015
lhumerus -14.9299 -11.4543 92.2794
lradius 22.5406
lwrist 10.075
lhand -27.6068 -7.6688
lfingers 7.12502
lthumb -1.00611 22.3086
rfemur -20.8973 -1.4562 21.959
rtibia 26.7055
rfoot -14.8418 0.608792
rtoes 11.2009
lfemur -18.2433 6.77471 -17.8031
ltibia 25.3713
lfoot -12.155 9.56784
ltoes -12.8295
618
root 0.429336 17.5778 10.8413 10.1886 -2.33161 -2.6955
lowerback 3.83005 0.585272 0.187906
upperback 5.56762 0.738025 1.49072
thorax 3.5706 0.340444 1.42592
lowerneck -14.9749 0.923162 -1.68256
upperneck 34.2155 1.75232 0.360118
head 14.1838 0.579751 0.7255
rclavicle -1.55052e-014 -5.26779e-015
rhumerus -15.2205 -3.61088 -87.7401
rradius 27.3314
rwrist 27.9044
rhand -21.4308 -26.9232
rfingers 7.12502
rthumb 4.95843 -56.8451
lclavicle -1.55052e-014 -5.26779e-015
lhumerus -14.9294 -11.5085 92.298
lradius 22.5577
lwrist 10.1125
lhand -27.5859 -7.61905
lfingers 7.12502
lthumb -0.986005 22.3584
rfemur -20.8881 -1.47252 21.9764
rtibia 26.6903
rfoot -14.8319 0.619905
rtoes 11.2243
lfemur -18.2383 6.76763 -17.7862
ltibia 25.362
lfoot -12.1466 9.56436
ltoes -12.8246
619
root 0.427921 17.5782 10.8401 10.1826 -2.32262 -2.70003
lowerback 3.8177 0.580399 0.189482
upperback 5.56322 0.731348 1.49714
thorax 3.57304 0.337042 1.43181
lowerneck -14.9692 0.919979 -1.70044
upperneck 34.1967 1.74507 0.381484
head 14.1736 0.577483 0.735874
rclavicle 4.77083e-015 -2.78299e-015
rhumerus -15.2108 -3.53765 -87.7474
rradius 27.3641
rwrist 27.857
rhand -21.4427 -26.9362
rfingers 7.12502
rthumb 4.94688 -56.8584
lclavicle 4.77083e-015 -2.78299e-015
lhumerus -14.9289 -11.5648 92.3135
lradius 22.5757
lwrist 10.1417
lhand -27.5655 -7.57322
lfingers 7.12502
lthumb -0.966274 22.4043
rfemur -20.8768 -1.49002 21.9886
rtibia 26.6745
rfoot -14.8236 0.633856
rtoes 11.2523
lfemur -18.2297 6.76228 -17.7745
ltibia 25.35
lfoot -12.1378 9.55916
ltoes -12.8117
620
root 0.426495 17.5786 10.839 10.1741 -2.31316 -2.70326
lowerback 3.8093 0.57519 0.190569
upperback 5.55935 0.724296 1.50179
thorax 3.57386 0.333477 1.4361
lowerneck -14.9698 0.91569 -1.71754
upperneck 34.1822 1.73506 0.405928
head 14.1667 0.574468 0.747007
rclavicle -1.3418e-015 -4.96962e-016
rhumerus -15.1915 -3.48268 -87.7548
rradius 27.3747
rwrist 27.8326
rhand -21.4659 -26.9358
rfingers 7.12502
rthumb 4.92448 -56.8586
lclavicle -1.3418e-015 -4.96962e-016
lhumerus -14.9304 -11.6257 92.3258
lradius 22.5954
lwrist 10.1662
lhand -27.5524 -7.54481
lfingers 7.12502
lthumb -0.953612 22.4328
rfemur -20.8619 -1.50949 21.9996
rtibia 26.6582
rfoot -14.8176 0.647679
rtoes 11.2728
lfemur -18.2171 6.75689 -17.7636
ltibia 25.3369
lfoot -12.1292 9.55239
ltoes -12.7973
621
root 0.425035 17.579 10.838 10.1642 -2.30374 -2.70185
lowerback 3.80189 0.570412 0.187314
upperback 5.55564 0.717835 1.50413
thorax 3.57422 0.330096 1.44043
lowerneck -14.9789 0.910936 -1.72677
upperneck 34.1733 1.72437 0.42433
head 14.1646 0.57126 0.754342
rclavicle 9.64106e-015 4.96962e-016
rhumerus -15.1716 -3.44601 -87.7603
rradius 27.377
rwrist 27.8254
rhand -21.4958 -26.92
rfingers 7.12502
rthumb 4.89565 -56.8435
lclavicle 9.64106e-015 4.96962e-016
lhumerus -14.9343 -11.703 92.3365
lradius 22.6169
lwrist 10.1985
lhand -27.5518 -7.54336
lfingers 7.12502
lthumb -0.953056 22.4343
rfemur -20.8458 -1.53034 22.0057
rtibia 26.6431
rfoot -14.813 0.6629
rtoes 11.3026
lfemur -18.2019 6.75166 -17.7575
ltibia 25.3211
lfoot -12.12 9.54409
ltoes -12.7819
622
root 0.423517 17.5793 10.837 10.1531 -2.29465 -2.70138
lowerback 3.79825 0.566365 0.184582
upperback 5.55034 0.712417 1.50628
thorax 3.57081 0.327278 1.4442
lowerneck -14.9925 0.906489 -1.72842
upperneck 34.171 1.71424 0.436424
head 14.1665 0.568319 0.757989
rclavicle -6.80837e-015 1.70955e-014
rhumerus -15.1573 -3.41638 -87.7634
rradius 27.3809
rwrist 27.824
rhand -21.5204 -26.9088
rfingers 7.12502
rthumb 4.8719 -56.8328
lclavicle -6.80837e-015 1.70955e-014
lhumerus -14.9434 -11.7863 92.3467
lradius 22.64
lwrist 10.2322
lhand -27.5612 -7.56399
lfingers 7.12502
lthumb -0.96207 22.4136
rfemur -20.8286 -1.5473 22.0126
rtibia 26.6293
rfoot -14.8093 0.6754
rtoes 11.3359
lfemur -18.1848 6.74652 -17.7498
ltibia 25.3037
lfoot -12.1118 9.53504
ltoes -12.7605
623
root 0.422027 17.5797 10.8362 10.1429 -2.28863 -2.69505
lowerback 3.79206 0.562853 0.175075
upperback 5.54439 0.707648 1.50708
thorax 3.56807 0.324556 1.4504
lowerneck -15.0132 0.903395 -1.72157
upperneck 34.176 1.70719 0.43881
head 14.1736 0.566357 0.756855
rclavicle -9.44227e-016 -5.76476e-015
rhumerus -15.1455 -3.38899 -87.7645
rradius 27.3875
rwrist 27.8229
rhand -21.533 -26.9035
rfingers 7.12502
rthumb 4.85969 -56.8278
lclavicle -9.44227e-016 -5.76476e-015
lhumerus -14.956 -11.8599 92.3557
lradius 22.6654
lwrist 10.2549
lhand -27.5807 -7.60838
lfingers 7.12502
lthumb -0.980898 22.3691
rfemur -20.8128 -1.56417 22.0124
rtibia 26.6173
rfoot -14.8069 0.69135
rtoes 11.3764
lfemur -18.1667 6.74192 -17.7492
ltibia 25.2844
lfoot -12.1034 9.52742
ltoes -12.7435
624
root 0.420574 17.58 10.8355 10.1325 -2.28598 -2.68624
lowerback 3.78181 0.560285 0.162782
upperback 5.54185 0.704025 1.50734
thorax 3.57112 0.322279 1.45767
lowerneck -15.0391 0.901655 -1.71162
upperneck 34.1805 1.70269 0.437241
head 14.1816 0.565343 0.754031
rclavicle -3.32964e-015 -1.0138e-014
rhumerus -15.1333 -3.35949 -87.7627
rradius 27.3996
rwrist 27.8179
rhand -21.5316 -26.9073
rfingers 7.12502
rthumb 4.86103 -56.8315
lclavicle -3.32964e-015 -1.0138e-014
lhumerus -14.9647 -11.9351 92.3633
lradius 22.6895
lwrist 10.2787
lhand -27.6068 -7.65866
lfingers 7.12502
lthumb -1.00612 22.3187
rfemur -20.7976 -1.58035 22.0088
rtibia 26.6065
rfoot -14.8045 0.709437
rtoes 11.4161
lfemur -18.1471 6.73778 -17.7518
ltibia 25.2638
lfoot -12.0942 9.52313
ltoes -12.7316
625
root 0.419171 17.5803 10.8349 10.1228 -2.28662 -2.67917
lowerback 3.77174 0.558526 0.15218
upperback 5.53724 0.70151 1.50824
thorax 3.57189 0.320619 1.46462
lowerneck -15.0569 0.902592 -1.70017
upperneck 34.1818 1.70308 0.431088
head 14.1864 0.566059 0.74977
rclavicle 3.8266e-015 1.69961e-014
rhumerus -15.1217 -3.33945 -87.759
rradius 27.4055
rwrist 27.8234
rhand -21.5208 -26.9163
rfingers 7.12502
rthumb 4.87146 -56.8403
lclavicle 3.8266e-015 1.69961e-014
lhumerus -14.98 -11.9931 92.3703
lradius 22.7143
lwrist 10.2928
lhand -27.6309 -7.70859
lfingers 7.12502
lthumb -1.0294 22.2687
rfemur -20.7843 -1.59399 22.0064
rtibia 26.597
rfoot -14.8012 0.728149
rtoes 11.4459
lfemur -18.1273 6.73446 -17.7533
ltibia 25.2422
lfoot -12.0842 9.52184
ltoes -12.7214
626
root 0.417653 17.5807 10.8343 10.1137 -2.28883 -2.67177
lowerback 3.75578 0.557203 0.140228
upperback 5.53341 0.699502 1.50892
thorax 3.57676 0.319148 1.47218
lowerneck -15.0603 0.90207 -1.69291
upperneck 34.1756 1.70037 0.429949
head 14.1845 0.565723 0.74756
rclavicle 6.11263e-015 -2.98177e-016
rhumerus -15.1048 -3.33363 -87.7541
rradius 27.3955
rwrist 27.8415
rhand -21.5054 -26.9319
rfingers 7.12502
rthumb 4.88633 -56.8556
lclavicle 6.11263e-015 -2.98177e-016
lhumerus -14.9974 -12.0366 92.3744
lradius 22.7404
lwrist 10.3019
lhand -27.6498 -7.74756
lfingers 7.12502
lthumb -1.04772 22.2296
rfemur -20.7728 -1.60512 22.0039
rtibia 26.5885
rfoot -14.7975 0.74331
rtoes 11.4635
lfemur -18.1086 6.73179 -17.7551
ltibia 25.2211
lfoot -12.0722 9.52263
ltoes -12.7148
627
root 0.416183 17.581 10.8335 10.1056 -2.29002 -2.66713
lowerback 3.73997 0.556965 0.133857
upperback 5.52681 0.699032 1.51018
thorax 3.57869 0.318664 1.47716
lowerneck -15.0494 0.899439 -1.69181
upperneck 34.1652 1.69547 0.430653
head 14.1774 0.564028 0.746655
rclavicle 8.49804e-015 9.64106e-015
rhumerus -15.0903 -3.3442 -87.7448
rradius 27.3725
rwrist 27.873
rhand -21.4889 -26.9434
rfingers 7.12502
rthumb 4.90232 -56.8667
lclavicle 8.49804e-015 9.64106e-015
lhumerus -15.0201 -12.0693 92.3793
lradius 22.7652
lwrist 10.3078
lhand -27.6613 -7.76361
lfingers 7.12502
lthumb -1.05879 22.2135
rfemur -20.7633 -1.61687 22.0046
rtibia 26.5808
rfoot -14.7943 0.757864
rtoes 11.4776
lfemur -18.0918 6.72869 -17.754
ltibia 25.201
lfoot -12.0598 9.52302
ltoes -12.7118
